<svg width="28" height="28" fill="none" xmlns="http://www.w3.org/2000/svg"><g clip-path="url(#clip0)"><path fill-rule="evenodd" clip-rule="evenodd" d="M14.068.467c-3.352 0-6.59 1.174-9.117 3.304C2.396 5.926.707 8.88.181 12.12a13.73 13.73 0 001.852 9.411c1.711 2.805 4.404 4.926 7.591 5.98.708.127.958-.308.958-.674v-2.36c-3.925.843-4.753-1.865-4.753-1.865a3.718 3.718 0 00-1.561-2.036c-1.27-.852.103-.852.103-.852a3 3 0 011.24.471c.373.248.683.576.908.96a2.998 2.998 0 002.379 1.524 3.025 3.025 0 001.71-.365c.054-.7.36-1.36.862-1.857-3.122-.35-6.401-1.542-6.401-6.813A5.328 5.328 0 016.51 9.92a5 5 0 01.139-3.67s1.181-.376 3.864 1.422a13.457 13.457 0 017.04 0c2.682-1.798 3.855-1.422 3.855-1.422.518 1.15.58 2.452.173 3.645a5.328 5.328 0 011.44 3.722c0 5.333-3.286 6.5-6.418 6.814a3.262 3.262 0 01.958 2.556v3.807c0 .452.25.801.965.665 3.152-1.08 5.804-3.207 7.485-6.002a13.73 13.73 0 001.806-9.35c-.525-3.215-2.195-6.15-4.722-8.3C20.597 1.685 17.394.5 14.068.467z" fill="#F9F9F9"/></g><defs><clipPath id="clip0"><path fill="#fff" d="M0 0h28v28H0z"/></clipPath></defs></svg>