<svg width="27" height="27" fill="none" xmlns="http://www.w3.org/2000/svg"><path d="M4.265 12.132c-.043 0-.053-.024-.032-.06l.223-.324c.021-.036.074-.06.117-.06H8.36c.042 0 .053.036.032.072l-.18.312c-.022.036-.075.072-.107.072l-3.84-.012zm-1.602 1.104c-.043 0-.053-.024-.032-.06l.223-.324c.021-.036.074-.06.117-.06h4.837c.043 0 .064.036.053.072l-.085.288c-.01.048-.053.072-.095.072l-5.018.012zM5.23 14.34c-.042 0-.053-.036-.032-.072l.149-.3c.021-.036.064-.072.106-.072h2.122c.042 0 .063.036.063.084l-.02.288c0 .048-.043.084-.075.084L5.23 14.34zm11.012-2.424c-.668.192-1.124.336-1.782.528-.159.048-.17.06-.308-.12-.159-.204-.275-.336-.498-.456-.668-.372-1.316-.264-1.92.18-.722.528-1.093 1.308-1.082 2.28.01.96.594 1.752 1.432 1.884.721.108 1.326-.18 1.803-.792.096-.132.18-.276.287-.444h-2.048c-.223 0-.276-.156-.201-.36.137-.372.392-.996.54-1.308.032-.072.107-.192.266-.192h3.862c-.022.324-.022.648-.064.972a5.494 5.494 0 01-.87 2.352c-.764 1.14-1.761 1.848-3.024 2.04-1.04.156-2.005-.072-2.853-.792-.786-.672-1.231-1.56-1.348-2.664-.138-1.308.202-2.484.902-3.516.753-1.116 1.75-1.824 2.97-2.076.998-.204 1.953-.072 2.812.588.562.42.965.996 1.23 1.692.064.108.022.168-.106.204z" fill="#00ACD7"/><path d="M19.754 18.552c-.965-.024-1.846-.336-2.589-1.056-.625-.612-1.018-1.392-1.145-2.316-.191-1.356.137-2.556.859-3.624.774-1.152 1.708-1.752 2.97-2.004 1.083-.216 2.101-.096 3.024.612.838.648 1.358 1.524 1.496 2.676.18 1.62-.233 2.94-1.22 4.068a4.716 4.716 0 01-2.546 1.536c-.287.06-.573.072-.849.108zm2.525-4.848c-.01-.156-.01-.276-.032-.396-.19-1.188-1.156-1.86-2.164-1.596-.987.252-1.623.96-1.857 2.088-.19.936.213 1.884.976 2.268.584.288 1.167.252 1.73-.072.838-.492 1.294-1.26 1.347-2.292z" fill="#00ACD7"/></svg>