<svg width="27" height="27" fill="none" xmlns="http://www.w3.org/2000/svg"><path fill-rule="evenodd" clip-rule="evenodd" d="M0 0h27v27H0V0z" fill="#fff"/><path fill-rule="evenodd" clip-rule="evenodd" d="M11.258 14.25s-.645.375.46.501c1.338.153 2.021.131 3.495-.148 0 0 .389.243.93.454-3.305 1.416-7.481-.082-4.885-.808zm-.404-1.85s-.724.536.382.65c1.43.148 2.558.16 4.512-.216 0 0 .27.274.694.424-3.997 1.169-8.447.092-5.588-.857z" fill="#3174B9"/><path fill-rule="evenodd" clip-rule="evenodd" d="M14.259 9.265c.815.938-.214 1.782-.214 1.782s2.069-1.068 1.119-2.405c-.887-1.247-1.568-1.866 2.115-4.001 0 0-5.78 1.443-3.02 4.624z" fill="#CA3132"/><path fill-rule="evenodd" clip-rule="evenodd" d="M18.631 15.617s.477.394-.526.698c-1.907.578-7.941.752-9.617.023-.602-.262.528-.626.883-.702.37-.08.582-.066.582-.066-.67-.472-4.33.927-1.859 1.328 6.74 1.093 12.285-.492 10.537-1.28zm-7.063-5.131s-3.068.729-1.086.994c.837.112 2.505.086 4.06-.045a31.622 31.622 0 002.544-.334s-.447.192-.771.413c-3.117.82-9.137.438-7.404-.4 1.466-.71 2.657-.628 2.657-.628zm5.506 3.077c3.168-1.646 1.703-3.228.68-3.015-.25.052-.362.097-.362.097s.093-.146.27-.208c2.024-.711 3.579 2.097-.651 3.209 0 0 .048-.044.063-.083z" fill="#3174B9"/><path fill-rule="evenodd" clip-rule="evenodd" d="M15.164 1.191s1.754 1.756-1.664 4.454c-2.742 2.165-.625 3.4-.001 4.81-1.6-1.444-2.775-2.715-1.987-3.898 1.156-1.736 4.36-2.578 3.652-5.366z" fill="#CA3132"/><path fill-rule="evenodd" clip-rule="evenodd" d="M11.88 18.024c3.04.194 7.71-.108 7.821-1.547 0 0-.213.545-2.513.978-2.595.488-5.797.432-7.695.118 0 0 .389.322 2.387.45z" fill="#3174B9"/><path fill-rule="evenodd" clip-rule="evenodd" d="M19.56 20.604h-.092v-.052h.25v.052h-.093v.26h-.064v-.26zm.498.013l-.093.246h-.042l-.091-.246h-.001v.246h-.062v-.31h.09l.085.22.085-.22h.089v.31h-.06v-.246zm-8.676 2.904c-.287.249-.59.389-.862.389-.388 0-.599-.233-.599-.606 0-.404.226-.699 1.127-.699h.334v.916zm.791.893V21.65c0-.706-.403-1.172-1.374-1.172-.566 0-1.063.14-1.467.318l.116.49c.318-.117.73-.226 1.133-.226.56 0 .8.225.8.692v.349h-.28c-1.358 0-1.971.527-1.971 1.32 0 .683.404 1.071 1.164 1.071.49 0 .855-.202 1.196-.497l.062.42h.621zm2.641 0h-.986l-1.189-3.866h.862l.738 2.376.164.714c.372-1.033.636-2.081.768-3.09h.838c-.224 1.273-.628 2.67-1.195 3.866zm3.788-.893c-.288.249-.591.389-.863.389-.387 0-.598-.233-.598-.606 0-.404.226-.699 1.127-.699h.334v.916zm.791.893V21.65c0-.706-.404-1.172-1.374-1.172-.567 0-1.064.14-1.467.318l.116.49c.318-.117.73-.226 1.134-.226.558 0 .8.225.8.692v.349h-.28c-1.36 0-1.972.527-1.972 1.32 0 .683.403 1.071 1.164 1.071.49 0 .854-.202 1.196-.497l.063.42h.62zm-11.131.657c-.226.33-.59.59-.99.738l-.39-.46c.304-.156.564-.408.685-.642.105-.209.148-.477.148-1.12v-4.414h.841v4.353c0 .86-.068 1.207-.294 1.545z" fill="#CA3132"/></svg>