<svg width="27" height="27" fill="none" xmlns="http://www.w3.org/2000/svg"><path d="M13.403 0C6.548 0 6.976 2.988 6.976 2.988l.008 3.096h6.54v.929H4.387S0 6.513 0 13.465s3.828 6.706 3.828 6.706h2.285v-3.226s-.123-3.849 3.767-3.849h6.487s3.645.06 3.645-3.54V3.601S20.566 0 13.402 0zM9.796 2.082c.65 0 1.177.528 1.177 1.183a1.178 1.178 0 11-2.354 0c0-.655.526-1.183 1.177-1.183z" fill="url(#paint0_linear)"/><path d="M13.597 27c6.855 0 6.427-2.988 6.427-2.988l-.008-3.096h-6.54v-.929h9.138s4.386.5 4.386-6.452-3.828-6.706-3.828-6.706h-2.285v3.226s.123 3.849-3.767 3.849h-6.488s-3.644-.06-3.644 3.54v5.954S6.434 27 13.598 27zm3.607-2.082c-.65 0-1.177-.528-1.177-1.183a1.178 1.178 0 112.354 0c0 .655-.526 1.183-1.177 1.183z" fill="url(#paint1_linear)"/><defs><linearGradient id="paint0_linear" x1="2.595" y1="2.36" x2="16.015" y2="15.755" gradientUnits="userSpaceOnUse"><stop stop-color="#387EB8"/><stop offset="1" stop-color="#366994"/></linearGradient><linearGradient id="paint1_linear" x1="10.807" y1="10.926" x2="25.218" y2="24.66" gradientUnits="userSpaceOnUse"><stop stop-color="#FFE052"/><stop offset="1" stop-color="#FFC331"/></linearGradient></defs></svg>