<svg width="27" height="27" fill="none" xmlns="http://www.w3.org/2000/svg"><path d="M13.322 4.44c-4.886 0-8.863 3.979-8.863 8.863 0 4.884 3.978 8.863 8.863 8.863 4.884 0 8.863-3.979 8.863-8.863 0-4.884-3.979-8.863-8.863-8.863zm-.013.787a.58.58 0 01.566.584.583.583 0 11-.566-.584zm1.335.96a7.175 7.175 0 014.912 3.5l-.688 1.552a.536.536 0 00.27.703l1.324.587c.04.414.046.83.015 1.245h-.737c-.073 0-.103.048-.103.12v.337c0 .795-.448.97-.842 1.013-.375.043-.79-.158-.842-.387-.221-1.243-.589-1.507-1.17-1.966.722-.458 1.472-1.135 1.472-2.039 0-.976-.67-1.591-1.125-1.893-.641-.422-1.35-.507-1.541-.507H7.976a7.176 7.176 0 014.015-2.265l.898.942a.529.529 0 00.75.017l1.005-.959zm-8.288 4.317a.584.584 0 11-.034 1.166.584.584 0 01.034-1.166zm13.903.026a.583.583 0 11-.033 1.165.583.583 0 01.033-1.165zm-12.804.094h1.016v4.582H6.42a7.176 7.176 0 01-.233-2.74l1.257-.558a.531.531 0 00.27-.701l-.259-.583zm4.241.048h2.42c.127 0 .884.145.884.713 0 .47-.581.64-1.06.64h-2.246l.002-1.353zm0 3.293h1.855c.168 0 .905.049 1.14.99.073.289.236 1.23.346 1.532.111.337.56 1.012 1.037 1.012h3.027a7.183 7.183 0 01-.664.77l-1.232-.265a.533.533 0 00-.632.408l-.292 1.365a7.174 7.174 0 01-5.983-.028l-.293-1.365a.53.53 0 00-.63-.408l-1.206.258a7.173 7.173 0 01-.622-.735h5.863c.066 0 .11-.01.11-.073v-2.074c0-.06-.044-.073-.11-.073h-1.716l.002-1.314zm-2.705 4.75a.583.583 0 11-.034 1.165.583.583 0 01.034-1.166zm8.634.026a.583.583 0 11-.034 1.166.583.583 0 01.034-1.166z" fill="#000"/><path fill-rule="evenodd" clip-rule="evenodd" d="M21.69 13.303a8.368 8.368 0 11-16.736 0 8.368 8.368 0 0116.736 0zm-.158-.808l1.305.808-1.305.808 1.122 1.048-1.436.539.896 1.247-1.517.247.637 1.399-1.535-.055.352 1.497-1.496-.353.054 1.536-1.398-.638-.248 1.517-1.247-.896-.538 1.436-1.048-1.121-.808 1.305-.808-1.305-1.048 1.121-.538-1.436-1.247.896-.248-1.517-1.399.638.055-1.536-1.496.353.352-1.497-1.536.055.638-1.399-1.517-.247.896-1.247-1.436-.539 1.121-1.048-1.305-.808 1.305-.808-1.121-1.048 1.436-.538-.896-1.247 1.517-.248-.638-1.398 1.536.054-.352-1.496 1.496.352-.055-1.535 1.4.637.247-1.517 1.247.897.538-1.437 1.048 1.122.808-1.305.808 1.305 1.048-1.122.538 1.437 1.247-.897.248 1.517 1.398-.637-.054 1.535 1.496-.352L19.7 8.07l1.535-.054-.637 1.398 1.517.248-.896 1.247 1.436.538-1.122 1.048z" fill="#000" stroke="#000" stroke-width="3" stroke-linecap="round" stroke-linejoin="round"/></svg>