<svg width="27" height="27" fill="none" xmlns="http://www.w3.org/2000/svg"><path d="M24.363 0H2.637A2.637 2.637 0 000 2.637v21.726A2.637 2.637 0 002.637 27h21.726A2.637 2.637 0 0027 24.363V2.637A2.637 2.637 0 0024.363 0z" fill="#3178C6"/><path d="M24.363 0H2.637A2.637 2.637 0 000 2.637v21.726A2.637 2.637 0 002.637 27h21.726A2.637 2.637 0 0027 24.363V2.637A2.637 2.637 0 0024.363 0z" fill="#3178C6"/><path fill-rule="evenodd" clip-rule="evenodd" d="M16.714 21.485v2.64c.429.22.936.385 1.522.495.586.11 1.204.165 1.853.165.633 0 1.234-.06 1.803-.181.57-.121 1.07-.32 1.498-.598.43-.278.77-.641 1.02-1.09.25-.448.375-1.002.375-1.662 0-.478-.071-.898-.214-1.258-.144-.36-.35-.68-.62-.96a4.536 4.536 0 00-.97-.756 10.401 10.401 0 00-1.274-.63 16.008 16.008 0 01-.933-.417 4.74 4.74 0 01-.701-.413 1.8 1.8 0 01-.446-.445.938.938 0 01-.157-.533.89.89 0 01.14-.49c.094-.146.226-.271.397-.376.17-.104.38-.185.627-.243a3.62 3.62 0 01.825-.087 5.517 5.517 0 011.436.202c.248.07.489.156.722.26.234.105.45.226.648.363v-2.466a6.44 6.44 0 00-1.316-.343 10.719 10.719 0 00-1.638-.111c-.628 0-1.222.067-1.783.202a4.534 4.534 0 00-1.482.631c-.426.286-.763.65-1.01 1.093-.248.443-.372.972-.372 1.588 0 .787.227 1.458.681 2.013.454.556 1.143 1.026 2.067 1.41.364.15.702.295 1.015.438.314.143.585.292.813.446.229.154.409.321.541.503a1.025 1.025 0 01.074 1.093 1.098 1.098 0 01-.375.38 2.058 2.058 0 01-.628.25 3.68 3.68 0 01-.878.092 5.073 5.073 0 01-3.26-1.204zm-4.438-6.504h3.386v-2.166h-9.44v2.166h3.37v9.646h2.683v-9.646z" fill="#fff"/></svg>