<svg width="28" height="28" fill="none" xmlns="http://www.w3.org/2000/svg"><path d="M13.61 27.214l-5.014-16.26h10.022l-5.007 16.26z" fill="#fff"/><path d="M25.644 10.954l1.528 4.94c.138.45-.011.944-.376 1.223L13.612 27.214l12.032-16.26z" fill="#fff" fill-opacity=".65"/><path d="M25.644 10.954H18.62l3.024-9.793c.154-.5.829-.5.99 0l3.011 9.793z" fill="#fff"/><path d="M1.573 10.954L.05 15.894c-.138.45.012.944.377 1.223l13.185 10.097-12.04-16.26z" fill="#fff" fill-opacity=".65"/><path d="M1.573 10.954h7.023L5.579 1.161a.514.514 0 00-.989 0l-3.017 9.793z" fill="#fff"/><path d="M13.613 27.214l-5.015-16.26H1.573l12.04 16.26z" fill="#fff" fill-opacity=".85"/><path d="M13.612 27.214l12.032-16.26H18.62l-5.007 16.26z" fill="#fff" fill-opacity=".85"/></svg>