<svg width="138" height="46" fill="none" xmlns="http://www.w3.org/2000/svg"><g clip-path="url(#clip0)"><path d="M37.407 16.402c-.6-1.126-1.32-1.93-2.241-2.494-.92-.563-2-.845-3.241-.845-1.641 0-3.042.604-4.162 1.81-1.12 1.208-1.68 2.736-1.68 4.546s.56 3.3 1.72 4.506c1.16 1.207 2.56 1.77 4.322 1.77 1.32 0 2.44-.281 3.321-.844.88-.564 1.56-1.449 1.96-2.575h5.203c-.64 2.615-1.88 4.626-3.721 6.115-1.841 1.488-4.082 2.212-6.763 2.212-1.561 0-3.002-.281-4.322-.844a10.776 10.776 0 01-3.602-2.495c-1-1.046-1.76-2.212-2.32-3.62A10.026 10.026 0 0121 19.5c0-1.488.24-2.897.76-4.184a10.991 10.991 0 012.281-3.5c1.12-1.167 2.321-2.052 3.722-2.655a10.982 10.982 0 014.442-.925c2.56 0 4.802.724 6.723 2.212 1.88 1.489 3.12 3.46 3.721 5.954h-5.242zm48.94-5.833V2h4.843v28.08h-4.843v-1.73c-.96.765-2 1.328-3.04 1.73a10.875 10.875 0 01-3.482.564c-1.32 0-2.561-.201-3.762-.644-1.16-.442-2.24-1.046-3.161-1.85-1.28-1.127-2.241-2.414-2.921-3.943-.68-1.529-1.04-3.098-1.04-4.788 0-1.568.32-3.057.96-4.505.64-1.448 1.52-2.696 2.68-3.742a9.737 9.737 0 013.282-2.092 10.827 10.827 0 013.962-.724c1.36 0 2.56.161 3.601.523 1 .362 2.001.926 2.921 1.69zm-.2 8.971c0-1.81-.56-3.339-1.72-4.546-1.16-1.207-2.561-1.81-4.282-1.81-1.68 0-3.121.603-4.322 1.85-1.2 1.248-1.8 2.696-1.8 4.426 0 1.77.6 3.258 1.8 4.465 1.2 1.207 2.721 1.77 4.562 1.77 1.6 0 2.961-.603 4.082-1.81 1.08-1.126 1.68-2.615 1.68-4.345zm12.926 1.489c.16 1.529.76 2.735 1.801 3.62 1.04.886 2.401 1.328 4.041 1.328 1.121 0 2.081-.241 2.962-.684a5.674 5.674 0 002.08-1.93h5.283c-.881 2.292-2.241 4.102-4.002 5.39-1.801 1.287-3.842 1.93-6.203 1.93-1.56 0-3.001-.28-4.321-.844a10.241 10.241 0 01-3.562-2.494c-1-1.046-1.76-2.253-2.32-3.62a10.998 10.998 0 01-.841-4.185c0-1.488.24-2.856.76-4.184.52-1.287 1.24-2.494 2.241-3.5 1.08-1.126 2.281-2.011 3.642-2.655 1.36-.603 2.761-.925 4.201-.925 1.841 0 3.522.402 5.122 1.247 1.601.845 2.922 2.011 4.042 3.54.68.925 1.161 1.931 1.521 3.058.32 1.126.48 2.414.48 3.902v1.046l-16.927-.04zm11.605-3.903c-.4-1.408-1.121-2.494-2.121-3.218-1.001-.724-2.241-1.126-3.762-1.126a5.66 5.66 0 00-3.521 1.207c-1.041.804-1.72 1.85-2.081 3.137h11.485z" fill="#4A4A4F"/><path d="M44.77 19.38c0-1.489.28-2.897.8-4.265.56-1.327 1.32-2.534 2.361-3.58a10.451 10.451 0 013.602-2.454 10.547 10.547 0 014.162-.845c1.52 0 2.92.241 4.201.764 1.28.523 2.481 1.247 3.562 2.293a11.167 11.167 0 012.561 3.702c.6 1.408.92 2.816.92 4.304 0 1.61-.24 3.098-.8 4.425-.52 1.328-1.32 2.535-2.361 3.621-1.04 1.086-2.24 1.931-3.602 2.494-1.36.564-2.8.845-4.361.845-1.601 0-3.042-.282-4.322-.845-1.32-.563-2.481-1.408-3.562-2.534-1.04-1.127-1.8-2.334-2.32-3.661-.6-1.408-.841-2.776-.841-4.264zm5.042-.04c0 1.97.52 3.54 1.6 4.666 1.081 1.167 2.562 1.73 4.403 1.73 1.8 0 3.241-.604 4.322-1.77 1.08-1.167 1.6-2.736 1.6-4.747 0-1.77-.56-3.259-1.68-4.386-1.121-1.126-2.562-1.73-4.242-1.73-1.761 0-3.202.564-4.322 1.73-1.12 1.167-1.68 2.656-1.68 4.506zM68.9 35.712v-1.046h1.04v1.046H68.9zm.04 8.207v-6.397h.92v6.397h-.92zm7.603 0v-3.943c0-1.126-.6-1.69-1.56-1.69-.96 0-1.56.564-1.56 1.69v3.943h-.921v-6.397h.92v.684c.44-.523 1.08-.764 1.8-.764.681 0 1.241.2 1.642.603.44.443.64 1.046.64 1.77v4.104h-.96zm5.443.08c-1.08 0-1.921-.241-2.601-.925l.64-.644c.52.523 1.2.724 1.96.724 1.041 0 1.681-.362 1.681-1.126 0-.563-.32-.885-1.04-.925l-1.04-.08c-1.241-.121-1.921-.645-1.921-1.73 0-1.167.96-1.851 2.32-1.851.921 0 1.721.241 2.282.684l-.6.603c-.44-.362-1.041-.523-1.681-.523-.92 0-1.44.402-1.44 1.046 0 .563.32.885 1.12.925l1.04.08c1.12.121 1.88.524 1.88 1.73 0 1.288-1.04 2.012-2.6 2.012zm6.322-.08c-1.08 0-1.64-.765-1.64-1.73v-3.943h-.8v-.724h.8v-2.011h.92v2.011h1.36v.724h-1.36v3.903c0 .563.28.925.88.925h.48v.804l-.64.04zm2.721-8.207v-1.046h1.04v1.046h-1.04zm.04 8.207v-6.397h.92v6.397h-.92zm5.323 0c-1.08 0-1.64-.765-1.64-1.73v-3.943h-.801v-.724h.8v-2.011h.92v2.011h1.361v.724h-1.36v3.903c0 .563.28.925.88.925h.48v.804l-.64.04zm6.763 0v-.724c-.441.523-1.081.804-1.801.804-.68 0-1.241-.2-1.64-.603-.441-.443-.641-1.046-.641-1.81v-4.064h.92v3.943c0 1.126.601 1.69 1.561 1.69s1.601-.564 1.601-1.69v-3.943h.92v6.397h-.92zm5.282 0c-1.081 0-1.641-.765-1.641-1.73v-3.943h-.8v-.724h.8v-2.011h.921v2.011h1.36v.724h-1.36v3.903c0 .563.28.925.88.925h.48v.804l-.64.04zm3.241-2.937c0 1.408.64 2.213 1.881 2.213.72 0 1.16-.242 1.681-.724l.64.563c-.64.643-1.241 1.005-2.321 1.005-1.681 0-2.761-1.005-2.761-3.258 0-2.052 1-3.259 2.601-3.259 1.641 0 2.601 1.207 2.601 3.098v.442l-4.322-.08zm3.162-1.77a1.597 1.597 0 00-1.481-.966c-.68 0-1.241.362-1.481.966-.16.362-.16.563-.2 1.046h3.362c-.04-.483-.04-.684-.2-1.046z" fill="#E84610"/></g><defs><clipPath id="clip0"><path fill="#fff" transform="translate(21 2)" d="M0 0h95v42H0z"/></clipPath></defs></svg>