<svg width="138" height="22" fill="none" xmlns="http://www.w3.org/2000/svg"><g clip-path="url(#clip0)" fill="#4267B2"><path d="M29.673 5.002c-1.115 0-1.437.481-1.437 1.543v1.762h2.973l-.298 2.846h-2.674v8.638h-3.568v-8.638h-2.403V8.307h2.403V6.594c0-2.871 1.189-4.388 4.505-4.388.695-.001 1.389.039 2.079.12v2.68l-1.58-.004zm1.783 8.685c0-3.209 1.56-5.625 4.83-5.625 1.783 0 2.873.893 3.394 2.002V8.307h3.417V19.79H39.68v-1.737c-.496 1.11-1.61 1.979-3.394 1.979-3.27 0-4.83-2.414-4.83-5.625v-.721zm3.567.772c0 1.713.643 2.847 2.303 2.847 1.462 0 2.205-1.038 2.205-2.678v-1.153c0-1.64-.743-2.678-2.205-2.678-1.66 0-2.303 1.134-2.303 2.847v.815zm15.506-6.394c1.385 0 2.699.29 3.417.772l-.792 2.461a5.738 5.738 0 00-2.378-.53c-1.933 0-2.772 1.085-2.772 2.943v.675c0 1.859.842 2.944 2.772 2.944a5.738 5.738 0 002.378-.53l.792 2.46c-.718.482-2.03.773-3.417.773-4.187 0-6.094-2.196-6.094-5.719v-.53c0-3.523 1.907-5.72 6.093-5.72zm3.887 6.423v-1.013c0-3.257 1.907-5.4 5.797-5.4 3.666 0 5.276 2.171 5.276 5.356v1.834h-7.507c.075 1.568.793 2.268 2.772 2.268 1.338 0 2.75-.265 3.79-.7l.653 2.38c-.941.483-2.874.845-4.582.845-4.515-.002-6.199-2.195-6.199-5.57zm3.567-1.497h4.31v-.289c0-1.254-.52-2.25-2.079-2.25-1.61.001-2.231.991-2.231 2.535v.004zm20.727 1.42c0 3.209-1.584 5.625-4.85 5.625-1.784 0-3.022-.868-3.517-1.979v1.737h-3.368V2.54l3.566-.315v7.673c.52-1.013 1.66-1.834 3.32-1.834 3.27 0 4.85 2.413 4.85 5.625v.722zm-3.566-.796c0-1.617-.643-2.823-2.353-2.823-1.462 0-2.254 1.013-2.254 2.654v1.206c0 1.64.792 2.654 2.254 2.654 1.71 0 2.353-1.206 2.353-2.823v-.868zm4.76.723v-.578c0-3.307 1.932-5.695 5.87-5.695 3.94 0 5.873 2.388 5.873 5.695v.578c0 3.305-1.933 5.695-5.871 5.695-3.939 0-5.872-2.39-5.872-5.695zm8.175-.82c0-1.52-.645-2.726-2.31-2.726-1.666 0-2.305 1.206-2.305 2.726v1.062c0 1.52.645 2.726 2.305 2.726 1.66 0 2.31-1.206 2.31-2.726v-1.062zm4.754.82v-.578c0-3.307 1.932-5.695 5.87-5.695 3.939 0 5.872 2.388 5.872 5.695v.578c0 3.305-1.933 5.695-5.871 5.695-3.939 0-5.871-2.39-5.871-5.695zm8.175-.82c0-1.52-.645-2.726-2.304-2.726-1.66 0-2.303 1.206-2.303 2.726v1.062c0 1.52.643 2.726 2.303 2.726 1.659 0 2.304-1.206 2.304-2.726v-1.062zm8.471.265l3.517-5.476h3.789l-3.69 5.67 3.839 5.814h-3.789l-3.666-5.625v5.625h-3.568V2.54l3.568-.316v11.558z"/></g><defs><clipPath id="clip0"><path fill="#fff" transform="translate(22 2)" d="M0 0h95v18H0z"/></clipPath></defs></svg>