<svg width="144" height="20" fill="none" xmlns="http://www.w3.org/2000/svg"><path d="M1.918 7.055H.781c-.39 0-.603-.146-.603-.546 0-.363.213-.545.603-.545h1.137V4.946c0-1.782.888-2.691 2.628-2.691.675 0 1.28.145 1.776.4.604.4.888.945.888 1.6 0 .472-.142.654-.497.654a.535.535 0 01-.533-.4c-.142-.473-.284-.763-.39-.873-.214-.254-.64-.4-1.244-.4-1.1 0-1.562.546-1.562 1.6v1.019h2.06c.461 0 .675.145.675.545 0 .364-.25.546-.675.546h-2.06v6.727c0 .4-.142.618-.498.618-.355 0-.497-.218-.497-.618l-.071-6.618zm9.2 6.145V7.091H9.59c-.426 0-.64-.145-.64-.545 0-.364.214-.546.64-.546h2.025c.355 0 .533.291.533.91.639-.692 1.278-1.055 2.024-1.055.604 0 1.03.145 1.385.545.356.4.498.873.498 1.455 0 .4-.142.618-.498.618-.213 0-.355-.146-.461-.4-.143-.51-.249-.764-.249-.8-.142-.255-.462-.4-.781-.4-.391 0-.782.145-1.102.473-.213.145-.497.472-.852.945v4.91h1.918c.462 0 .64.144.64.508s-.214.546-.64.546H9.59c-.462 0-.64-.146-.64-.546 0-.364.214-.545.64-.545h1.563l-.036.036zm7.707-2.909v1.164c0 1.272.853 1.854 2.558 1.854.639 0 1.136-.036 1.527-.218.213-.036.533-.255 1.03-.618.284-.291.533-.437.64-.437.283 0 .461.146.461.437 0 .29-.213.654-.64 1.018-.674.545-1.74.873-3.054.873-2.38 0-3.552-.946-3.552-2.946V8.546c0-.655.249-1.273.746-1.71.64-.654 1.634-.945 2.912-.945 2.31 0 3.446 1.2 3.446 3.6 0 .618-.249.873-.64.873l-5.434-.073zm0-1.055h5.08c0-1.563-.853-2.363-2.558-2.363-.64 0-1.172.145-1.74.473-.498.4-.782.8-.782 1.309v.581zm8.915 1.055v1.164c0 1.272.853 1.854 2.558 1.854.64 0 1.136-.036 1.527-.218.213-.036.533-.255 1.03-.618.284-.291.533-.437.64-.437.284 0 .461.146.461.437 0 .29-.213.654-.64 1.018-.674.545-1.74.873-3.054.873-2.38 0-3.552-.946-3.552-2.946V8.546c0-.655.249-1.273.746-1.71.64-.654 1.634-.945 2.913-.945 2.309 0 3.445 1.2 3.445 3.6 0 .618-.248.873-.64.873l-5.434-.073zm0-1.055h5.08c0-1.563-.853-2.363-2.558-2.363-.64 0-1.172.145-1.74.473-.533.4-.782.8-.782 1.309v.581zm7.957 1.782V6.473c0-2.437 1.243-3.6 3.694-3.6.994 0 1.776.254 2.415.654.675.546 1.03 1.31 1.03 2.291 0 .473-.142.655-.533.655-.248 0-.461-.218-.532-.655-.036-.363-.214-.69-.391-1.018-.284-.618-.995-.873-2.06-.873-.888 0-1.563.255-1.99.691-.426.437-.532 1.128-.532 2.073v3.782c0 1.018.213 1.709.604 2.109.461.473 1.1.763 1.989.763 1.385 0 2.166-.509 2.38-1.454.106-.4.106-.546.106-.618.107-.218.249-.291.462-.291.355 0 .533.254.533.654 0 .91-.391 1.6-1.102 2.182-.603.4-1.35.618-2.308.618-1.137 0-2.025-.254-2.664-.8-.746-.618-1.101-1.527-1.101-2.618zm8.773.655V8.655c0-1.855 1.172-2.764 3.552-2.764s3.552.91 3.552 2.764v3.018c0 1.854-1.172 2.763-3.517 2.763-2.38-.036-3.587-.945-3.587-2.763zm6.074 0V8.655c0-1.164-.853-1.71-2.558-1.71-1.634 0-2.521.619-2.521 1.71v3.018c0 1.163.852 1.709 2.557 1.709 1.74-.037 2.522-.618 2.522-1.71zm8.844 1.709c-.497.4-.888.618-1.279.764-.39.145-.888.254-1.42.254-.924 0-1.74-.218-2.31-.618-.674-.473-1.03-1.164-1.03-2.11V8.547c0-.91.356-1.6.995-2.073.533-.4 1.35-.618 2.238-.618.604 0 1.101.036 1.492.218.39.145.852.4 1.278.8V3.09c0-.51.143-.764.498-.764s.532.255.532.764v10.764c0 .4-.142.545-.497.545-.213 0-.355-.109-.39-.364-.072-.145-.107-.363-.107-.654zm-.071-1.2V7.927c-.497-.4-.888-.654-1.243-.763-.462-.146-.888-.255-1.386-.255-.639 0-1.172.11-1.562.4-.498.291-.782.8-.782 1.382v2.945c0 .619.249 1.055.782 1.419.461.254.923.4 1.634.4.532 0 1.03-.11 1.42-.255.355-.327.746-.618 1.137-1.018zm3.943-1.891v1.164c0 1.272.852 1.854 2.557 1.854.64 0 1.137-.036 1.527-.218.213-.036.533-.255 1.03-.618.285-.291.533-.437.64-.437.284 0 .461.146.461.437 0 .29-.213.654-.639 1.018-.675.545-1.74.873-3.055.873-2.38 0-3.552-.946-3.552-2.946V8.546c0-.655.25-1.273.746-1.71.64-.654 1.634-.945 2.913-.945 2.309 0 3.445 1.2 3.445 3.6 0 .618-.248.873-.639.873l-5.434-.073zm0-1.055h5.079c0-1.563-.853-2.363-2.558-2.363-.639 0-1.172.145-1.74.473-.533.4-.781.8-.781 1.309v.581zm7.956 1.782V6.473c0-2.437 1.243-3.6 3.694-3.6.994 0 1.776.254 2.415.654.675.546 1.03 1.31 1.03 2.291 0 .473-.142.655-.533.655-.248 0-.461-.218-.532-.655-.036-.363-.214-.69-.391-1.018-.284-.618-.995-.873-2.06-.873-.888 0-1.563.255-1.99.691-.39.473-.532 1.128-.532 2.073v3.782c0 1.018.213 1.709.604 2.109.426.473 1.1.763 1.989.763 1.385 0 2.166-.509 2.38-1.454.106-.4.106-.546.106-.618.107-.218.249-.291.426-.291.356 0 .533.254.533.654 0 .91-.39 1.6-1.1 2.182-.605.4-1.35.618-2.31.618-1.136 0-2.024-.254-2.664-.8-.71-.618-1.065-1.527-1.065-2.618zm14.492 2.364c-.498.4-.888.654-1.172.764a3.952 3.952 0 01-1.386.254c-.852 0-1.563-.145-2.13-.545-.64-.473-.924-1.055-.924-1.928 0-.872.355-1.527.994-2.036.533-.436 1.279-.655 2.167-.655.675 0 1.492.146 2.415.51v-1.31c0-.618-.284-1.054-.852-1.309a4.146 4.146 0 00-1.421-.254c-1.35 0-2.025.4-2.167 1.163-.035.364-.106.546-.106.546-.107.145-.249.254-.462.254-.39 0-.533-.218-.533-.618 0-.545.213-1.054.64-1.527.497-.618 1.42-.873 2.77-.873 1.03 0 1.811.146 2.309.546.604.472.888 1.163.888 2.218v3.745c0 .437.106.764.248.873l.498.255a.59.59 0 01.248.509c0 .29-.142.472-.462.472-.106 0-.248 0-.461-.109-.391-.145-.64-.254-.675-.254-.249-.182-.355-.4-.426-.691zm-.036-1.091v-1.564c-.781-.254-1.563-.4-2.238-.4-1.527 0-2.273.51-2.273 1.528 0 .545.249.945.675 1.163.39.218.853.291 1.385.291.498 0 .924-.109 1.314-.29.285-.074.64-.328 1.137-.728zm3.978-5.564c.249-.29.497-.545.64-.654.248-.146.497-.255.888-.255.532 0 1.03.291 1.491.91.285-.364.533-.619.782-.692.248-.145.604-.218.994-.218 1.244 0 1.812.618 1.812 1.855v5.963c0 .51-.142.764-.533.764-.355 0-.497-.255-.497-.764v-5.6c0-.763-.284-1.163-.888-1.163-.462 0-.888.29-1.279.873v5.89c0 .51-.142.764-.497.764s-.497-.255-.497-.764V8.182c0-.873-.356-1.273-.995-1.273-.462 0-.852.291-1.243.873v5.927c0 .51-.142.764-.533.764-.355 0-.497-.255-.497-.764V6.436c0-.363.142-.545.462-.545.142 0 .284.11.39.29-.035.146 0 .4 0 .546zm9.235 0c.782-.618 1.741-.872 2.771-.872 2.166 0 3.196.945 3.196 2.763v3.018c0 .873-.284 1.564-.888 2.073-.532.473-1.278.655-2.237.655-1.101 0-2.025-.291-2.877-.91v3.491c0 .546-.142.8-.498.8-.355 0-.497-.254-.497-.8V6.655c0-.546.142-.8.426-.8.142 0 .285.109.391.29.071.219.107.437.213.582zm0 5.6c.746.655 1.634 1.018 2.664 1.018.64 0 1.172-.109 1.563-.4.497-.29.675-.763.675-1.309V8.618c0-.654-.249-1.054-.782-1.382-.39-.218-.923-.29-1.562-.29-.604 0-1.101.109-1.421.254-.355.146-.675.473-1.172.946v4.181h.035zm9.484-2.945c0-2.327.781-4.4 2.309-6.146.532-.654 1.03-1.018 1.349-1.018.107 0 .249 0 .284.11.107.108.143.145.143.29 0 .146-.214.437-.604.873-1.634 1.6-2.416 3.6-2.416 5.964 0 2.618.853 4.8 2.522 6.4.355.29.498.618.498.8 0 .109-.036.254-.143.29-.106.11-.213.146-.284.146-.39 0-.923-.473-1.634-1.418-1.385-1.673-2.024-3.746-2.024-6.291zm21.453.618c0 2.327-.781 4.4-2.308 6.145-.533.655-1.03 1.019-1.35 1.019-.107 0-.249 0-.284-.11a.437.437 0 01-.142-.29c0-.146.213-.473.604-.8 1.633-1.6 2.415-3.6 2.415-5.964 0-2.618-.853-4.8-2.522-6.4-.355-.29-.497-.618-.497-.8 0-.109.035-.254.142-.29.106-.11.213-.146.284-.146.391 0 .923.472 1.634 1.418 1.35 1.636 2.024 3.745 2.024 6.218zm-5.86 6.655h-9.804a.628.628 0 01-.603-.619c0-.363.248-.618.603-.618h9.804a.63.63 0 01.604.618c-.036.364-.214.619-.604.619zM117 3.49s.852.618.852 1.6c0 1.818-2.415 3.855-2.415 5.745 0 2.073 1.527 3.382 2.948 3.782.213.037.284-.218.036-.254-.604-.146-1.279-.946-1.279-2.219 0-1.163 1.101-1.6 1.527-2.181.462-.618.356-1.31.107-1.528-.249-.218-.107-.509.391-.145.461.364.888.945.746 1.564-.214.763.035 1.2.461 1.272.391.037.853-.145.782-.509-.036-.363-.249-.763-.142-.763.284 0 .888.69.888 1.818 0 1.127-.888 1.927-1.173 2.218-.142.145.036.4.285.29.106-.035.355-.217.497-.29.675-.51 1.811-1.564 1.811-3.527 0-2.073-.746-2.982-1.527-3.746-.746-.763-.923-.545-.746-.218.64 1.164.249 1.527-.213 1.527-.533 0-.604-1.309-.781-2.29-.498-2.219-2.416-2.582-2.771-2.582-.391.036-.746.218-.284.436z" fill="#006400"/></svg>