<svg width="138" height="36" fill="none" xmlns="http://www.w3.org/2000/svg"><path d="M62.597 18.872c0 4.025-3.158 6.991-7.035 6.991-3.876 0-7.034-2.966-7.034-6.991 0-4.054 3.158-6.992 7.035-6.992 3.876 0 7.034 2.938 7.034 6.992zm-3.08 0c0-2.515-1.83-4.237-3.955-4.237-2.124 0-3.955 1.722-3.955 4.237 0 2.49 1.83 4.236 3.956 4.236 2.124 0 3.955-1.749 3.955-4.236z" fill="#EA4335"/><path d="M77.774 18.872c0 4.025-3.159 6.991-7.035 6.991-3.876 0-7.035-2.966-7.035-6.991 0-4.05 3.159-6.992 7.035-6.992 3.876 0 7.035 2.938 7.035 6.992zm-3.08 0c0-2.515-1.83-4.237-3.955-4.237s-3.955 1.722-3.955 4.237c0 2.49 1.83 4.236 3.955 4.236s3.955-1.749 3.955-4.236z" fill="#FBBC05"/><path d="M92.318 12.303v12.552c0 5.163-3.054 7.272-6.665 7.272-3.399 0-5.445-2.267-6.216-4.12l2.681-1.113c.478 1.138 1.647 2.48 3.532 2.48 2.311 0 3.743-1.42 3.743-4.097v-1.005h-.107c-.69.848-2.017 1.588-3.693 1.588-3.507 0-6.719-3.045-6.719-6.963 0-3.946 3.213-7.017 6.719-7.017 1.672 0 3 .741 3.693 1.564h.107v-1.138h2.925v-.003zm-2.706 6.594c0-2.462-1.648-4.262-3.744-4.262-2.125 0-3.905 1.8-3.905 4.262 0 2.437 1.78 4.211 3.905 4.211 2.096 0 3.744-1.774 3.744-4.21z" fill="#4285F4"/><path d="M97.14 4.946v20.489h-3.004V4.945h3.004z" fill="#34A853"/><path d="M108.845 21.173l2.39 1.589c-.772 1.138-2.631 3.098-5.843 3.098-3.984 0-6.96-3.07-6.96-6.991 0-4.158 3.001-6.992 6.615-6.992 3.639 0 5.42 2.888 6.001 4.448l.32.794-9.375 3.871c.718 1.403 1.834 2.119 3.399 2.119 1.568 0 2.656-.77 3.453-1.936zm-7.358-2.515l6.267-2.595c-.345-.873-1.382-1.481-2.602-1.481-1.565 0-3.744 1.377-3.665 4.076z" fill="#EA4335"/><path d="M37.158 17.053v-2.966h10.026a9.8 9.8 0 01.148 1.79c0 2.226-.61 4.978-2.576 6.938-1.913 1.986-4.357 3.045-7.595 3.045-6.001 0-11.047-4.873-11.047-10.856S31.16 4.148 37.16 4.148c3.32 0 5.685 1.299 7.462 2.991l-2.1 2.093c-1.274-1.191-3-2.118-5.365-2.118-4.382 0-7.81 3.521-7.81 7.89s3.428 7.89 7.81 7.89c2.842 0 4.461-1.138 5.498-2.172.841-.838 1.395-2.036 1.613-3.672l-7.111.003z" fill="#4285F4"/></svg>