<svg width="92" height="23" fill="none" xmlns="http://www.w3.org/2000/svg"><path d="M65.316 8.82c-1.339 0-2.294.46-2.762 1.332l-.252.47V9.049h-2.178v9.583h2.294v-5.699c0-1.363.735-2.146 2.016-2.146 1.223 0 1.922.762 1.922 2.088v5.762h2.294v-6.18c-.006-2.277-1.25-3.636-3.334-3.636zm-11.114 0c-2.704 0-4.384 1.697-4.384 4.435v1.348c0 2.627 1.696 4.26 4.42 4.26 1.822 0 3.103-.671 3.907-2.056l-1.423-.825c-.593.799-1.544 1.295-2.483 1.295-1.381 0-2.206-.856-2.206-2.294v-.38h6.4v-1.591c0-2.548-1.659-4.192-4.231-4.192zm2.147 4.229h-4.316v-.227c0-1.58.772-2.448 2.169-2.448 1.344 0 2.147.856 2.147 2.294v.38zm35.049-5.582V5.633h-7.922v1.834h2.777v9.33h-2.777v1.834h7.922v-1.835H88.62V7.467h2.777zM31.307 5.37c-3.539 0-5.739 2.22-5.739 5.798v1.935c0 3.578 2.2 5.798 5.738 5.798 3.539 0 5.739-2.22 5.739-5.798v-1.935c0-3.573-2.2-5.798-5.739-5.798zm3.37 7.865c0 2.373-1.228 3.737-3.37 3.737-2.142 0-3.371-1.364-3.371-3.737v-2.2c0-2.372 1.229-3.736 3.37-3.736 2.143 0 3.371 1.364 3.371 3.737v2.199zm9.566-4.414c-1.203 0-2.242.502-2.788 1.343l-.247.38V9.048h-2.179v12.88h2.294v-4.666l.247.364c.515.772 1.523 1.232 2.694 1.232 1.973 0 3.968-1.3 3.968-4.208v-1.628c0-2.088-1.233-4.202-3.99-4.202zm1.695 5.72c0 1.543-.898 2.505-2.336 2.505-1.344 0-2.278-1.015-2.278-2.469V13.14c0-1.475.945-2.506 2.299-2.506 1.428 0 2.32.962 2.32 2.506v1.4h-.005zm29.038-8.902l-4.63 12.998h2.325l.887-2.786h5.319l.01.027.877 2.759h2.326L77.46 5.638h-2.484zm-.84 8.373l2.084-6.57 2.064 6.57h-4.148zM21.085 9.264a5.653 5.653 0 00-.478-4.609 5.618 5.618 0 00-6.069-2.722A5.555 5.555 0 0010.333.046c-2.463 0-4.615 1.58-5.376 3.932a5.566 5.566 0 00-3.722 2.723 5.708 5.708 0 00.693 6.654 5.653 5.653 0 00.477 4.61 5.618 5.618 0 006.07 2.722 5.556 5.556 0 004.205 1.887c2.462 0 4.614-1.58 5.375-3.933a5.566 5.566 0 003.723-2.722 5.708 5.708 0 00-.693-6.655zM12.675 21.1a4.16 4.16 0 01-2.684-.978c.032-.021.095-.053.137-.074l4.457-2.59a.725.725 0 00.368-.64v-6.321l1.884 1.094c.027.016.037.037.037.053v5.238c-.005 2.326-1.884 4.218-4.2 4.218zM3.67 17.224a4.204 4.204 0 01-.498-2.827c.031.02.089.053.131.079l4.457 2.59a.72.72 0 00.73 0l5.439-3.16v2.193c0 .031-.016.052-.026.058l-4.505 2.616a4.18 4.18 0 01-5.727-1.549zM2.496 7.435a4.173 4.173 0 012.183-1.85v5.334a.74.74 0 00.368.64l5.439 3.16-1.89 1.094a.068.068 0 01-.063.005l-4.505-2.616c-2-1.163-2.687-3.748-1.532-5.767zm15.471 3.626l-5.439-3.16 1.885-1.095c.026-.016.052-.016.063-.005l4.505 2.616c2 1.163 2.688 3.753 1.532 5.767a4.173 4.173 0 01-2.184 1.85v-5.333a.72.72 0 00-.362-.64zm1.874-2.838c-.031-.021-.089-.053-.13-.08l-4.458-2.59a.721.721 0 00-.73 0l-5.44 3.162V6.526c0-.032.016-.053.027-.058l4.504-2.616a4.17 4.17 0 012.09-.566c1.448 0 2.86.756 3.638 2.109.488.856.667 1.86.498 2.828zm-11.78 3.9L6.175 11.03c-.026-.016-.037-.037-.037-.053V5.739a4.2 4.2 0 011.229-2.982 4.144 4.144 0 012.96-1.236 4.16 4.16 0 012.683.977 1.604 1.604 0 01-.136.074l-4.458 2.59a.725.725 0 00-.367.64l.01 6.322zm1.023-2.22l2.42-1.405 2.42 1.406v2.812l-2.42 1.406-2.42-1.406V9.904z" fill="#000"/></svg>