<svg width="138" height="17" fill="none" xmlns="http://www.w3.org/2000/svg"><path d="M116.105 1.108s.641 0 .908.2c0 0 .269.2.476.809l4.48 13.303s.062.167.011.305c0 0-.052.136-.28.136h-1.899s-.227 0-.361-.052c0 0-.135-.052-.217-.284l-.908-2.878h-5.245l-.909 2.857s-.062.19-.175.273c0 0-.114.084-.361.084h-1.9s-.227 0-.289-.136c0 0-.061-.138 0-.305l4.459-13.303s.104-.315.207-.504c0 0 .104-.19.258-.294 0 0 .156-.106.362-.158 0 0 .206-.053.495-.053h.888zm-.392 2.838h-.103l-.847 2.919-1.073 3.59h3.964l-1.073-3.529-.868-2.98zM73.468 1.148s.289 0 .391.075c0 0 .103.073.103.367v5.45h6.422V1.59s0-.274.115-.358c0 0 .114-.084.361-.084h1.573s.29 0 .383.075c0 0 .093.073.093.367v13.83s0 .294-.093.368c0 0-.094.073-.383.073H80.86s-.247 0-.36-.084c0 0-.116-.084-.116-.357V9.244h-6.422v6.176s0 .294-.103.368c0 0-.102.073-.391.073H71.9s-.227 0-.35-.084c0 0-.124-.084-.124-.357V1.59s0-.274.124-.358c0 0 .123-.084.35-.084h1.568zm-6.293 0s.228 0 .3.084c0 0 .072.086.072.317v1.453s0 .21-.072.295c0 0-.072.084-.3.084h-3.921V15.42s0 .294-.094.368c0 0-.093.073-.382.073h-1.614s-.247 0-.36-.084c0 0-.114-.084-.114-.357V3.38h-3.84s-.228 0-.29-.083c0 0-.062-.084-.062-.295V1.55s0-.231.062-.317c0 0 .062-.084.29-.084h10.325zM41.022 1.06c4.032 0 7.298 3.325 7.298 7.429 0 4.1-3.266 7.428-7.298 7.428H24.934a1.05 1.05 0 01-1.042-1.06c0-.586.466-1.06 1.042-1.06h3.748a1.05 1.05 0 001.039-1.06 1.05 1.05 0 00-1.039-1.06h-.834a1.05 1.05 0 01-1.041-1.06c0-.586.466-1.06 1.041-1.06h2.5c.579-.002 1.027-.481 1.042-1.06a1.05 1.05 0 00-1.042-1.06H21.6a1.05 1.05 0 01-1.041-1.06c0-.585.466-1.06 1.041-1.06h6.456c.579-.001 1.027-.481 1.042-1.06a1.05 1.05 0 00-1.042-1.06H26.6a1.05 1.05 0 01-1.041-1.06c0-.585.466-1.087 1.041-1.087l14.423.01zm-1.167 2.476c-2.241 0-4.054 1.848-4.054 4.126v1.65c0 2.282 1.813 4.127 4.054 4.127 2.238 0 4.054-1.845 4.054-4.126V7.662c0-2.278-1.816-4.126-4.054-4.126zm1.385 3.901c.54 0 .978.447.978.996v.128c0 .55-.439.996-.978.996h-3.043a.988.988 0 01-.979-.996v-.128c0-.55.44-.996.98-.996h3.042zm-19.578 6.36c.543 0 .979.444.979.996v.128a.987.987 0 01-.979.996h-3.601a.988.988 0 01-.98-.996v-.128c0-.552.44-.996.98-.996h3.601zM97.505 1.135s.268 0 .341.117c0 0 .072.115.072.367v1.326s0 .274-.072.368c0 0-.073.095-.34.095h-5.493s-.785 0-1.105.357c0 0-.32.357-.32 1.028v2.205h6.235s.269 0 .342.106c0 0 .072.105.072.398v1.154s0 .251-.072.365c0 0-.073.116-.342.116H90.59v3.071s0 .673.34 1.02c0 0 .341.347 1.084.347h5.615s.29 0 .363.105c0 0 .071.104.071.399v1.3s0 .23-.082.356c0 0-.083.126-.352.126h-5.884s-1.094 0-1.797-.315c0 0-.703-.315-1.127-.84 0 0-.424-.525-.59-1.198 0 0-.166-.671-.166-1.407V4.917s0-.736.196-1.418c0 0 .198-.683.642-1.209 0 0 .445-.524 1.148-.84 0 0 .704-.315 1.694-.315h5.761zm7.264.013s.288 0 .392.075c0 0 .103.073.103.367v13.83s0 .294-.103.368c0 0-.104.073-.392.073h-1.568s-.247 0-.36-.084c0 0-.114-.084-.114-.357V1.59s0-.274.114-.358c0 0 .113-.084.36-.084h1.568z" fill="#000"/><path d="M23.33 1.078c.54 0 .977.446.977.996v.13c0 .55-.437.993-.976.993h-4.022a.986.986 0 01-.979-.993v-.13c0-.55.44-.996.98-.996h4.02zm1.25 8.479c.539 0 .978.447.978.996v.128c0 .55-.439.996-.979.996h-2.208a.988.988 0 01-.979-.996v-.128c0-.55.439-.996.979-.996h2.208z" fill="#000"/></svg>