<svg width="138" height="34" fill="none" xmlns="http://www.w3.org/2000/svg"><g clip-path="url(#clip0)" fill-rule="evenodd" clip-rule="evenodd"><path d="M79.353 28.333C74.355 32.028 67.11 34 60.875 34c-8.745 0-16.618-3.245-22.574-8.642-.468-.424-.049-1.002.513-.672 6.428 3.752 14.375 6.01 22.585 6.01 5.537 0 11.627-1.15 17.227-3.535.846-.36 1.554.556.727 1.172z" fill="#F90"/><path d="M81.43 25.948c-.636-.819-4.222-.387-5.832-.195-.49.06-.565-.368-.124-.676 2.857-2.017 7.544-1.435 8.09-.759.547.68-.142 5.393-2.826 7.643-.412.345-.805.161-.622-.297.603-1.51 1.954-4.894 1.314-5.716z" fill="#F90"/><path d="M75.71 10.84V8.878c0-.297.225-.496.494-.496h8.75c.28 0 .504.203.504.496v1.679c-.003.281-.24.65-.658 1.232l-4.534 6.493c1.685-.041 3.463.21 4.99 1.074.345.195.438.48.465.762v2.092c0 .286-.315.62-.644.447-2.692-1.416-6.267-1.57-9.243.015-.303.166-.622-.165-.622-.45v-1.987c0-.32.004-.864.322-1.348l5.252-7.557h-4.57c-.281 0-.506-.199-.506-.492zM43.797 23.071h-2.662a.503.503 0 01-.475-.454V8.913a.5.5 0 01.513-.492h2.481a.5.5 0 01.483.458v1.791h.05c.647-1.731 1.863-2.539 3.503-2.539 1.666 0 2.707.808 3.455 2.54.644-1.732 2.108-2.54 3.676-2.54 1.116 0 2.336.462 3.081 1.499.843 1.153.67 2.828.67 4.296l-.003 8.65a.503.503 0 01-.513.495h-2.658a.507.507 0 01-.48-.496v-7.263c0-.578.053-2.02-.074-2.569-.199-.92-.794-1.179-1.565-1.179-.644 0-1.318.432-1.59 1.123-.274.69-.248 1.848-.248 2.625v7.263a.503.503 0 01-.513.496H48.27a.504.504 0 01-.479-.496l-.004-7.263c0-1.528.251-3.778-1.64-3.778-1.912 0-1.837 2.193-1.837 3.778v7.263a.503.503 0 01-.513.496M92.99 8.131c3.95 0 6.087 3.403 6.087 7.73 0 4.18-2.362 7.495-6.087 7.495-3.878 0-5.99-3.402-5.99-7.642 0-4.267 2.138-7.583 5.99-7.583zm.023 2.798c-1.962 0-2.085 2.682-2.085 4.353 0 1.675-.026 5.25 2.062 5.25 2.063 0 2.16-2.884 2.16-4.642 0-1.156-.048-2.538-.396-3.635-.3-.954-.895-1.326-1.741-1.326zm11.186 12.142h-2.651a.507.507 0 01-.479-.496l-.004-13.708a.505.505 0 01.513-.446h2.467a.509.509 0 01.475.383v2.095h.049c.745-1.874 1.79-2.768 3.628-2.768 1.194 0 2.358.432 3.107 1.615.696 1.097.696 2.94.696 4.267v8.626a.512.512 0 01-.513.432h-2.669a.506.506 0 01-.472-.432v-7.443c0-1.499.173-3.692-1.666-3.692-.647 0-1.242.436-1.538 1.097-.374.837-.423 1.67-.423 2.595v7.38a.513.513 0 01-.52.495m-35.463-6.546c0 1.04.026 1.908-.498 2.832-.423.751-1.097 1.213-1.842 1.213-1.022 0-1.62-.781-1.62-1.934 0-2.276 2.032-2.69 3.96-2.69v.58zm2.684 6.509a.554.554 0 01-.629.064c-.883-.737-1.044-1.078-1.527-1.78-1.46 1.494-2.497 1.941-4.388 1.941-2.242 0-3.983-1.386-3.983-4.161 0-2.167 1.168-3.643 2.838-4.364 1.445-.639 3.463-.751 5.005-.928v-.345c0-.635.049-1.386-.326-1.934-.322-.492-.943-.695-1.493-.695-1.015 0-1.917.522-2.138 1.603-.045.24-.22.477-.464.489l-2.58-.278c-.216-.05-.46-.226-.396-.56C61.93 8.946 64.76 8 67.29 8c1.295 0 2.987.346 4.01 1.33 1.295 1.213 1.171 2.831 1.171 4.593v4.16c0 1.251.517 1.8 1.003 2.476.169.24.206.53-.01.71-.544.454-1.51 1.299-2.041 1.772l-.004-.007m-37.576-6.509c0 1.04.026 1.908-.498 2.832-.423.751-1.093 1.213-1.842 1.213-1.022 0-1.617-.781-1.617-1.934 0-2.276 2.033-2.69 3.957-2.69v.58zm2.684 6.509a.554.554 0 01-.63.064c-.883-.737-1.04-1.078-1.526-1.78-1.46 1.494-2.494 1.941-4.388 1.941-2.239 0-3.983-1.386-3.983-4.161 0-2.167 1.172-3.643 2.838-4.364 1.445-.639 3.462-.751 5.005-.928v-.345c0-.635.048-1.386-.322-1.934-.326-.492-.947-.695-1.494-.695-1.014 0-1.92.522-2.141 1.603-.045.24-.221.477-.46.489l-2.584-.278c-.217-.05-.456-.226-.396-.56C27.04 8.946 29.866 8 32.398 8c1.295 0 2.987.346 4.009 1.33 1.295 1.213 1.172 2.831 1.172 4.593v4.16c0 1.251.516 1.8 1.003 2.476.172.24.21.53-.008.71-.542.454-1.508 1.299-2.04 1.772l-.007-.007" fill="#000"/></g><defs><clipPath id="clip0"><path fill="#fff" transform="translate(26 8)" d="M0 0h86v26H0z"/></clipPath></defs></svg>