<svg width="138" height="67" fill="none" xmlns="http://www.w3.org/2000/svg"><path d="M53.496 29.247v12.12h-3.881V26.132l8.012.008c3.403 0 4.562 2.386 4.562 4.553v10.674h-3.874V30.713c0-.908-.472-1.466-1.613-1.466h-3.206zm26.388-.183c-1.326 0-2.353.678-2.782 1.599-.254.552-.341.976-.371 1.652h5.97c-.076-1.652-.83-3.25-2.817-3.25zm-3.153 5.877c0 1.974 1.234 3.426 3.437 3.426 1.714 0 2.566-.472 3.557-1.452l2.397 2.275c-1.535 1.507-3.145 2.421-5.983 2.421-3.715 0-7.27-2.014-7.27-7.883 0-5.015 3.104-7.854 7.183-7.854 4.134 0 6.523 3.324 6.523 7.677v1.39h-9.844zm-7.137 6.407c-3.162 0-4.503-2.188-4.503-4.35V21.982h3.874v4.151h2.921v3.114h-2.92v7.512c0 .884.42 1.376 1.344 1.376h1.576v3.214h-2.292zM46.162 24.027h-3.907v-3.69h3.907v3.69zm.01 17.5c-2.926-.28-3.921-2.044-3.921-4.08l.004-11.315h3.917v15.395zm46.57-.325c-2.92-.28-3.91-2.042-3.91-4.075V19.81h3.91V41.2zm13.671-18.888c-3.544-17.18-37.084-18.267-58.703-5.182v1.445c21.597-11.035 52.226-10.97 55.017 4.852.934 5.232-2.032 10.687-7.328 13.823v4.102c6.375-2.319 12.912-9.837 11.014-19.04zM67.115 52.37c-14.92 1.371-30.469-.782-32.644-12.374-1.065-5.714 1.553-11.772 5.027-15.534V22.45c-6.253 5.451-9.647 12.353-7.693 20.508 2.493 10.457 15.838 16.384 36.205 14.416 8.059-.782 18.606-3.359 25.939-7.36v-5.685c-6.654 3.94-17.664 7.197-26.834 8.041z" fill="#0071C5"/><path d="M97.262 20.96c0-.188-.11-.248-.364-.248h-.244v.534l.245.006c.253 0 .363-.084.363-.26v-.031zm.381 1.324h-.29a.069.069 0 01-.06-.038l-.395-.666c-.007-.014-.04-.03-.054-.03h-.178v.66c0 .036-.024.074-.07.074h-.263c-.032 0-.065-.038-.065-.074v-1.67c0-.096.038-.137.12-.15.093-.012.344-.02.48-.02.48 0 .771.141.771.59v.032c0 .278-.139.425-.355.497l.41.688c.002.014.012.033.012.05 0 .027-.016.057-.063.057zm-.687-2.215c-.713 0-1.29.585-1.29 1.29 0 .705.577 1.28 1.29 1.28a1.29 1.29 0 001.29-1.28c0-.705-.581-1.29-1.29-1.29zm0 2.836a1.55 1.55 0 01-1.557-1.547 1.56 1.56 0 013.117 0c0 .852-.704 1.547-1.56 1.547z" fill="#0071C5"/></svg>