<svg width="138" height="37" fill="none" xmlns="http://www.w3.org/2000/svg"><path d="M26.466 25.568c.401 1.066.957 1.978 1.667 2.735a7.174 7.174 0 002.525 1.738c.972.401 2.03.602 3.172.602a7.847 7.847 0 003.127-.626 7.69 7.69 0 002.548-1.76 7.984 7.984 0 001.69-2.712c.402-1.05.602-2.225.602-3.523V2h4.864v32.444h-4.817V31.43a11.166 11.166 0 01-3.822 2.642c-1.466.618-3.049.927-4.747.927-1.73 0-3.343-.301-4.84-.904a11.334 11.334 0 01-3.892-2.572c-1.096-1.113-1.96-2.449-2.593-4.01-.633-1.56-.95-3.298-.95-5.213V2h4.863v20.023c0 1.297.201 2.48.603 3.545zM55.044 2v11.819a12.39 12.39 0 013.752-2.573c1.42-.633 2.965-.95 4.632-.95 1.73 0 3.35.325 4.864.974a12.425 12.425 0 013.937 2.642 12.433 12.433 0 012.64 3.94c.649 1.513.973 3.12.973 4.82 0 1.699-.324 3.298-.973 4.796a12.5 12.5 0 01-2.64 3.917 12.425 12.425 0 01-3.937 2.642c-1.514.648-3.135.973-4.864.973-1.667 0-3.219-.317-4.655-.95a12.303 12.303 0 01-3.775-2.573v2.967h-4.632V2h4.678zm.533 23.87a8.067 8.067 0 001.737 2.595 8.381 8.381 0 002.594 1.761 7.882 7.882 0 003.196.65 7.767 7.767 0 003.15-.65 8.103 8.103 0 002.57-1.761 8.598 8.598 0 001.737-2.596 7.895 7.895 0 00.649-3.198 8.06 8.06 0 00-.649-3.22 8.52 8.52 0 00-1.737-2.62 7.799 7.799 0 00-2.57-1.737 8.016 8.016 0 00-3.15-.626 8.014 8.014 0 00-3.15.626 8.063 8.063 0 00-2.594 1.737 8.315 8.315 0 00-1.76 2.62 8.06 8.06 0 00-.648 3.22c0 1.144.208 2.21.625 3.198zm22.904-7.973a12.612 12.612 0 012.548-3.916 11.836 11.836 0 013.845-2.665c1.482-.649 3.088-.973 4.817-.973 1.698 0 3.273.309 4.724.927a11.206 11.206 0 013.752 2.572c1.05 1.097 1.869 2.395 2.455 3.893.587 1.499.88 3.129.88 4.89v1.53H82.28a8.034 8.034 0 002.663 4.797 7.939 7.939 0 002.362 1.413c.88.34 1.815.51 2.803.51 2.81 0 5.08-1.159 6.809-3.476l3.381 2.503a12.582 12.582 0 01-4.354 3.708c-1.73.896-3.675 1.344-5.836 1.344-1.76 0-3.405-.31-4.933-.927a12.012 12.012 0 01-3.984-2.596 12.313 12.313 0 01-2.663-3.916c-.648-1.499-.973-3.129-.973-4.89 0-1.668.309-3.244.926-4.727zm6.508-1.83c-1.312 1.097-2.184 2.557-2.617 4.38h14.406c-.402-1.823-1.259-3.283-2.571-4.38-1.312-1.097-2.849-1.646-4.609-1.646-1.76 0-3.296.549-4.609 1.646zm25.267.533c-.988 1.081-1.482 2.549-1.482 4.403v13.44h-4.678V10.807h4.632v2.92a6.579 6.579 0 012.293-2.27c.941-.557 2.061-.835 3.358-.835H116v4.356h-1.945c-1.544 0-2.811.541-3.799 1.623z" fill="#010202"/></svg>