<svg width="138" height="82" fill="none" xmlns="http://www.w3.org/2000/svg"><path d="M84.58 41.696c-.696.605-1.558.918-2.547.918h-7.24c-.988 0-1.83-.313-2.524-.918-.695-.606-1.053-1.398-1.053-2.36v-.583c0-.92.358-1.691 1.094-2.317.737-.647 1.558-.96 2.483-.96h4.61v2.17h-4.61c-.314 0-.589.105-.862.314-.274.229-.4.48-.4.793v.584c0 .73.42 1.086 1.262 1.086h7.24c.862 0 1.284-.355 1.284-1.086v-5.593c0-.294-.126-.544-.4-.772a1.34 1.34 0 00-.884-.336H71.427v-2.171h10.606a3.57 3.57 0 012.483.961c.738.647 1.094 1.42 1.094 2.317v5.594c0 .96-.337 1.753-1.03 2.359zm14.55-2.359c-.568 2.192-1.748 3.277-3.577 3.277h-3.116c-1.83 0-3.008-1.085-3.577-3.277l-2.293-8.872h2.462l2.21 8.455c.253 1.001.78 1.503 1.536 1.503h2.441c.778 0 1.326-.502 1.58-1.503l2.187-8.455h2.462l-2.315 8.872zm16.464-2.692c-.737.647-1.558.959-2.483.959h-4.63v-2.191h4.63c.294 0 .569-.104.842-.313.273-.23.422-.48.422-.772v-.584c0-.731-.422-1.108-1.264-1.108h-7.26c-.843 0-1.263.377-1.263 1.108v5.572c0 .313.127.564.4.773.273.229.547.334.863.334h10.628v2.17h-10.628c-.927 0-1.746-.313-2.483-.939-.736-.647-1.095-1.419-1.095-2.338v-5.572c0-.983.359-1.755 1.054-2.36.693-.604 1.535-.919 2.524-.919h7.26c.989 0 1.831.315 2.526.898.693.605 1.052 1.398 1.052 2.38v.585c0 .897-.359 1.669-1.095 2.317zm-74.023-.122c0 .8-.653 1.448-1.46 1.448a1.455 1.455 0 01-1.46-1.448c0-.8.654-1.449 1.46-1.449.807 0 1.46.65 1.46 1.45zm0-4.623c0 .8-.653 1.448-1.46 1.448a1.455 1.455 0 01-1.46-1.448c0-.8.654-1.448 1.46-1.448.807 0 1.46.647 1.46 1.448zm4.854 9.246c0 .8-.653 1.45-1.46 1.45-.805 0-1.459-.65-1.459-1.45 0-.8.654-1.448 1.458-1.448.808 0 1.461.649 1.461 1.448z" fill="#1D2329"/><path d="M46.425 36.523c0 .8-.653 1.448-1.46 1.448a1.454 1.454 0 01-1.459-1.447c0-.8.654-1.45 1.458-1.45.808 0 1.461.65 1.461 1.45z" fill="#3875E1"/><path d="M58.717 39.316l-.051.21c-.586 2.032-1.741 3.038-3.5 3.038H53.56c-1.824 0-2.996-1.08-3.562-3.263l-2.286-8.836h2.453l2.2 8.42c.253.999.776 1.497 1.53 1.497h.934c.776 0 1.32-.493 1.573-1.49 0 0 .57-1.75 2.314-1.771 0 0 1.712-.164 2.3 1.7l.023.062" fill="#1D2329"/><path d="M61.04 38.883c.235.966.822 1.5 1.577 1.5h.933c.776 0 1.32-.5 1.573-1.499l2.18-8.418h2.45l-2.305 8.835c-.566 2.183-1.74 3.264-3.562 3.264H62.28c-1.823 0-3.005-1.089-3.571-3.272l2.33-.41zM33.83 33.74c0-.293-.125-.544-.396-.773-.271-.231-.542-.336-.855-.336h-9v7.807h9c.834 0 1.25-.355 1.25-1.089v-5.608zm1.27 7.975c-.687.608-1.542.92-2.52.92H21.306v-12.18H32.58c.918 0 1.729.313 2.458.962.73.65 1.083 1.424 1.083 2.324v5.608c0 .964-.332 1.759-1.02 2.366zm-13.679 4.156h3.572v.544h-1.489v3.699h-.618v-3.698h-1.465v-.545zm4.051 0h.556v1.807c.233-.283.523-.423.87-.423a.93.93 0 01.506.139c.148.093.26.222.333.388.073.164.108.409.108.734v1.598h-.555V48.38a.764.764 0 00-.153-.495.494.494 0 00-.401-.187.663.663 0 00-.348.094c-.108.063-.23.167-.36.313v2.01h-.556v-4.243zm3.556 2.556h1.417c-.013-.221-.08-.392-.198-.511a.64.64 0 00-.478-.18.69.69 0 00-.492.18c-.127.12-.21.29-.249.511zm1.966.334h-1.982c.015.269.105.481.272.64a.9.9 0 00.646.239 1.69 1.69 0 001.017-.342v.54a1.868 1.868 0 01-.51.241 2.163 2.163 0 01-.592.072c-.312 0-.562-.063-.755-.19a1.4 1.4 0 01-.46-.517 1.566 1.566 0 01-.173-.75c0-.426.12-.773.363-1.04.244-.267.558-.4.947-.4.373 0 .67.13.893.39.223.261.334.61.334 1.047v.07zm4.528-2.377c-.48 0-.876.154-1.19.461-.313.308-.47.696-.47 1.164 0 .455.158.834.474 1.138.314.302.71.454 1.186.454.47 0 .866-.155 1.187-.466.322-.309.482-.69.482-1.144 0-.464-.157-.848-.473-1.152-.315-.304-.715-.455-1.196-.455zm2.202 3.992l-.613.599a2.624 2.624 0 01-.601-.102 3.992 3.992 0 01-.635-.239 6.838 6.838 0 01-.86-.52 2.127 2.127 0 01-1.283-.736 2.06 2.06 0 01-.503-1.373c0-.634.216-1.158.65-1.574.433-.414.982-.622 1.646-.622.66 0 1.208.207 1.645.618.438.412.655.93.655 1.553 0 .525-.164.985-.496 1.382-.33.398-.758.648-1.282.751l.162.06c.502.193.866.288 1.087.288.122 0 .265-.026.428-.085zm2.604-.263v-.358a1.31 1.31 0 01-.409.299c-.152.07-.305.105-.457.105a.96.96 0 01-.495-.132.876.876 0 01-.342-.359c-.077-.15-.115-.4-.115-.75v-1.602h.557v1.595c0 .294.042.5.128.615.085.117.235.175.45.175.268 0 .496-.129.683-.387v-1.998h.555v2.797h-.555zm2.603-.558v-.832l-.373.143c-.19.075-.323.15-.403.227a.382.382 0 00-.117.285c0 .116.038.21.112.284.074.073.17.11.289.11a.71.71 0 00.492-.216zm.549-1.13v1.188c0 .095.032.143.098.143.067 0 .172-.049.316-.148v.34a1.86 1.86 0 01-.303.161.654.654 0 01-.24.044c-.237 0-.378-.093-.42-.275-.238.183-.49.275-.76.275a.672.672 0 01-.69-.68c0-.175.064-.333.191-.473.13-.137.31-.248.545-.33l.714-.243v-.15c0-.34-.17-.51-.508-.51-.304 0-.6.155-.887.465v-.6c.216-.252.528-.378.933-.378.304 0 .548.08.732.237a.76.76 0 01.164.202.7.7 0 01.093.253 3.5 3.5 0 01.021.478zm1.45-1.109v.342c.248-.27.53-.404.848-.404a.931.931 0 01.835.508c.078.156.118.406.118.748v1.603h-.557v-1.6c0-.289-.044-.494-.131-.616-.089-.124-.236-.185-.442-.185-.263 0-.487.13-.672.39v2.011h-.571v-2.797h.571zm2.169.442l1.05-1.024v.583h.892v.497h-.892v1.369c0 .32.132.48.4.48.2 0 .41-.065.634-.195v.513c-.215.12-.449.179-.702.179a.924.924 0 01-.635-.222.674.674 0 01-.132-.15.781.781 0 01-.087-.22 2.465 2.465 0 01-.035-.514v-1.24h-.493v-.056zm4.297 2.355v-.358a1.307 1.307 0 01-.408.299c-.152.07-.305.105-.457.105a.96.96 0 01-.495-.132.86.86 0 01-.342-.359c-.077-.15-.115-.4-.115-.75v-1.602h.556v1.595c0 .294.043.5.13.615.084.117.234.175.449.175.267 0 .495-.129.682-.387v-1.998h.556v2.797h-.556zm3.632-2.03v2.03h-.563V48.55c0-.312-.043-.529-.126-.652-.084-.123-.23-.185-.438-.185a.631.631 0 00-.32.082 1.449 1.449 0 00-.33.29v2.029h-.556v-2.796h.555v.368c.284-.287.562-.431.834-.431.357 0 .634.172.83.514.297-.342.607-.514.93-.514.274 0 .498.1.674.298.177.199.264.503.264.91v1.65h-.555v-1.662c0-.232-.048-.411-.144-.536a.49.49 0 00-.412-.185c-.23 0-.444.118-.643.354zm8.037 1.043v.668c-.45.244-.968.366-1.556.366-.478 0-.883-.096-1.216-.287a2.113 2.113 0 01-.79-.786 2.136 2.136 0 01-.292-1.086c0-.618.223-1.138.667-1.56.444-.42.992-.633 1.642-.633.45 0 .948.117 1.499.35v.654c-.502-.285-.99-.428-1.468-.428-.49 0-.896.153-1.22.46A1.528 1.528 0 0059.846 48c0 .467.16.851.477 1.151.32.3.727.45 1.223.45.518 0 1.025-.158 1.519-.474zm1.954-1.32a.875.875 0 00-.654.261.906.906 0 00-.256.664c0 .267.087.486.262.654.174.17.4.254.672.254a.913.913 0 00.67-.257.881.881 0 00.26-.657.875.875 0 00-.27-.658.944.944 0 00-.684-.261zm.03-.498c.427 0 .782.137 1.064.412.283.275.423.62.423 1.035 0 .404-.143.738-.43 1.005-.286.267-.646.4-1.082.4-.42 0-.772-.136-1.054-.407a1.338 1.338 0 01-.425-1.012c0-.41.142-.751.428-1.023.286-.273.645-.41 1.076-.41zm4.414.775v2.03h-.564V48.55c0-.312-.042-.529-.126-.652-.083-.123-.229-.185-.437-.185a.631.631 0 00-.32.082 1.449 1.449 0 00-.331.29v2.029h-.556v-2.796h.556v.368c.284-.287.562-.431.834-.431.357 0 .634.172.83.514.297-.342.607-.514.93-.514.274 0 .498.1.674.298.176.199.264.503.264.91v1.65h-.556v-1.662c0-.232-.047-.411-.143-.536a.49.49 0 00-.412-.185c-.23 0-.444.118-.643.354zm3.481-.246h-.393v1.715c.17.089.35.134.537.134.26 0 .473-.09.64-.27.166-.18.248-.413.248-.696a.954.954 0 00-.118-.482.704.704 0 00-.32-.305c-.135-.065-.334-.096-.594-.096zm-.965 3.706v-4.227h.976c.5 0 .888.124 1.167.37.278.248.419.593.419 1.037 0 .42-.132.763-.394 1.033-.261.27-.595.403-1.001.403-.18 0-.378-.04-.595-.118v1.502h-.572zm4.96-1.43v-.358c-.12.128-.255.227-.41.299-.152.07-.304.105-.456.105a.96.96 0 01-.495-.132.864.864 0 01-.34-.359c-.078-.15-.117-.4-.117-.75v-1.602h.556v1.595c0 .294.043.5.129.615.085.117.235.175.45.175.267 0 .495-.129.682-.387v-1.998h.556v2.797h-.556zm.952-2.355l1.05-1.024v.583h.893v.497h-.893v1.369c0 .32.133.48.4.48.2 0 .412-.065.635-.195v.513c-.215.12-.449.179-.7.179a.925.925 0 01-.637-.222.676.676 0 01-.132-.15.781.781 0 01-.087-.22 2.465 2.465 0 01-.035-.514v-1.24h-.494v-.056zm2.529-.441h.555v2.797h-.555v-2.797zm.278-1.173c.092 0 .17.03.235.093.066.063.098.14.098.231a.31.31 0 01-.098.23.322.322 0 01-.462-.001.311.311 0 010-.456.31.31 0 01.227-.098zm1.632 1.172v.342c.249-.27.531-.404.848-.404a.931.931 0 01.835.508c.079.156.118.406.118.748v1.603h-.556v-1.6c0-.289-.044-.494-.132-.616-.087-.124-.236-.185-.441-.185-.264 0-.488.13-.672.39v2.011h-.572v-2.797h.572zm3.448.482a.544.544 0 00-.387.152.488.488 0 00-.16.366.46.46 0 00.157.358.567.567 0 00.397.142.565.565 0 00.394-.145.473.473 0 00.157-.361.476.476 0 00-.159-.366.57.57 0 00-.399-.146zm-.134 2.45c-.188 0-.34.04-.46.118-.12.079-.179.18-.179.304 0 .286.261.43.782.43.247 0 .438-.038.573-.108.136-.072.203-.174.203-.305 0-.13-.085-.234-.256-.317-.17-.082-.392-.123-.663-.123zm-.913-1.964c0-.298.11-.534.329-.707.22-.174.52-.261.898-.261h1.162v.435h-.569c.11.11.187.212.23.304.043.09.064.196.064.313 0 .146-.042.29-.126.43a.875.875 0 01-.323.324c-.131.075-.347.135-.648.18-.214.03-.32.102-.32.216 0 .064.039.118.118.159a1.8 1.8 0 00.427.129c.345.076.567.134.667.177a.86.86 0 01.269.182.682.682 0 01.203.505c0 .266-.12.477-.357.635-.237.158-.555.237-.953.237-.402 0-.723-.08-.962-.238-.24-.16-.36-.372-.36-.64 0-.38.235-.623.704-.733-.187-.12-.28-.239-.28-.355a.32.32 0 01.121-.244.752.752 0 01.326-.161c-.413-.183-.62-.478-.62-.887zm8.329.842v.668c-.45.244-.968.366-1.557.366-.477 0-.883-.096-1.216-.287a2.11 2.11 0 01-.79-.786 2.12 2.12 0 01-.29-1.086c0-.618.221-1.138.666-1.56.444-.42.991-.633 1.642-.633.45 0 .948.117 1.497.35v.654c-.5-.285-.988-.428-1.466-.428-.49 0-.897.153-1.22.46A1.528 1.528 0 0089.84 48c0 .467.159.851.477 1.151.32.3.726.45 1.222.45.519 0 1.025-.158 1.52-.474zm1.954-1.32a.875.875 0 00-.655.261.906.906 0 00-.256.664c0 .267.088.486.263.654.174.17.399.254.672.254a.913.913 0 00.67-.257.88.88 0 00.26-.657.875.875 0 00-.271-.658.943.943 0 00-.683-.261zm.03-.498c.427 0 .782.137 1.065.412.282.275.422.62.422 1.035 0 .404-.143.738-.43 1.005-.285.267-.646.4-1.082.4-.42 0-.772-.136-1.054-.407a1.338 1.338 0 01-.425-1.012c0-.41.142-.751.429-1.023.285-.273.644-.41 1.075-.41zm4.413.775v2.03h-.563V48.55c0-.312-.042-.529-.126-.652-.083-.123-.23-.185-.437-.185a.63.63 0 00-.32.082 1.447 1.447 0 00-.331.29v2.029h-.557v-2.796h.557v.368c.283-.287.562-.431.834-.431.356 0 .633.172.83.514.297-.342.607-.514.932-.514.271 0 .495.1.672.298.176.199.264.503.264.91v1.65h-.556v-1.662c0-.232-.048-.411-.143-.536a.489.489 0 00-.412-.185c-.23 0-.445.118-.643.354zm3.482-.246h-.394v1.715c.171.089.35.134.537.134.261 0 .474-.09.641-.27.165-.18.248-.413.248-.696a.96.96 0 00-.118-.482.71.71 0 00-.32-.305c-.135-.065-.334-.096-.594-.096zm-.965 3.706v-4.227h.976c.5 0 .888.124 1.168.37.277.248.416.593.416 1.037 0 .42-.13.763-.392 1.033-.261.27-.596.403-1.001.403a1.79 1.79 0 01-.596-.118v1.502h-.571zm4.422-1.988v-.832l-.372.143c-.191.075-.325.15-.403.227a.38.38 0 00-.118.285c0 .116.037.21.112.284.075.073.17.11.289.11a.703.703 0 00.492-.216zm.548-1.13v1.188c0 .095.034.143.099.143.068 0 .173-.049.317-.148v.34a1.902 1.902 0 01-.304.161.652.652 0 01-.24.044c-.237 0-.377-.093-.42-.275-.239.183-.49.275-.76.275a.67.67 0 01-.689-.68.68.68 0 01.191-.473 1.31 1.31 0 01.545-.33l.713-.243v-.15c0-.34-.17-.51-.508-.51-.303 0-.599.155-.887.465v-.6c.216-.252.528-.378.934-.378.303 0 .547.08.731.237a.76.76 0 01.165.202.72.72 0 01.092.253c.016.084.019.243.019.478h.002zm1.45-1.109v.342c.25-.27.532-.404.849-.404a.937.937 0 01.835.508c.078.156.118.406.118.748v1.603h-.557v-1.6c0-.289-.043-.494-.131-.616-.087-.124-.236-.185-.441-.185-.264 0-.488.13-.673.39v2.011h-.571v-2.797h.571zm4.18 0h.622l-1.986 4.227h-.622l.95-2.02-1.084-2.207h.635l.754 1.574.731-1.574zm2.795 1.663h-.243v-1.585h.391l.403 1.266.39-1.266h.383v1.585h-.244v-1.33l-.408 1.33h-.24l-.432-1.352v1.352zm-.947 0h-.266v-1.36h-.519v-.225h1.309v.225h-.524v1.36z" fill="#1D2329"/></svg>